<svg xmlns="http://www.w3.org/2000/svg" width="1280" height="720" viewBox="0 0 1280 720">
<defs><linearGradient id="sky" x2="0" y2="1"><stop stop-color="#0a1726"/><stop offset=".7" stop-color="#245256"/><stop offset="1" stop-color="#09232b"/></linearGradient><linearGradient id="shade"><stop stop-color="#07121f" stop-opacity=".98"/><stop offset=".42" stop-color="#07121f" stop-opacity=".88"/><stop offset="1" stop-color="#07121f" stop-opacity=".08"/></linearGradient><linearGradient id="water" x2="0" y2="1"><stop stop-color="#142f38"/><stop offset="1" stop-color="#07131f"/></linearGradient></defs>
<path fill="url(#sky)" d="M0 0h1280v720H0Z"/>
<circle cx="953" cy="237" r="90" fill="none" stroke="#bcd8d1" opacity=".08"/><circle cx="953" cy="237" r="67" fill="#ecc9a0" opacity=".85"/>
<g fill="#b9d8d7" opacity=".6"><circle cx="740" cy="125" r="1.5"/><circle cx="1140" cy="165" r="1"/><circle cx="850" cy="85" r="1"/><circle cx="1080" cy="95" r="1.5"/><circle cx="675" cy="216" r="1"/></g>
<path d="M-70,650 L42,470 L190,650Z" fill="#153b3f"/><path d="M-125,570 L-70,300 L-15,570Z" fill="#0e2b31"/><path d="M-45,570 L10,300 L65,570Z" fill="#0e2b31"/><path d="M75,650 L187,391 L335,650Z" fill="#153b3f"/><path d="M20,570 L75,331 L130,570Z" fill="#0e2b31"/><path d="M100,570 L155,331 L210,570Z" fill="#0e2b31"/><path d="M220,650 L332,312 L480,650Z" fill="#153b3f"/><path d="M165,570 L220,362 L275,570Z" fill="#0e2b31"/><path d="M245,570 L300,362 L355,570Z" fill="#0e2b31"/><path d="M365,650 L477,423 L625,650Z" fill="#153b3f"/><path d="M310,570 L365,393 L420,570Z" fill="#0e2b31"/><path d="M390,570 L445,393 L500,570Z" fill="#0e2b31"/><path d="M510,650 L622,344 L770,650Z" fill="#153b3f"/><path d="M455,570 L510,424 L565,570Z" fill="#0e2b31"/><path d="M535,570 L590,424 L645,570Z" fill="#0e2b31"/><path d="M655,650 L767,455 L915,650Z" fill="#153b3f"/><path d="M600,570 L655,325 L710,570Z" fill="#0e2b31"/><path d="M680,570 L735,325 L790,570Z" fill="#0e2b31"/><path d="M800,650 L912,376 L1060,650Z" fill="#153b3f"/><path d="M745,570 L800,356 L855,570Z" fill="#0e2b31"/><path d="M825,570 L880,356 L935,570Z" fill="#0e2b31"/><path d="M945,650 L1057,297 L1205,650Z" fill="#153b3f"/><path d="M890,570 L945,387 L1000,570Z" fill="#0e2b31"/><path d="M970,570 L1025,387 L1080,570Z" fill="#0e2b31"/><path d="M1090,650 L1202,408 L1350,650Z" fill="#153b3f"/><path d="M1035,570 L1090,418 L1145,570Z" fill="#0e2b31"/><path d="M1115,570 L1170,418 L1225,570Z" fill="#0e2b31"/><path d="M1235,650 L1347,329 L1495,650Z" fill="#153b3f"/><path d="M1180,570 L1235,319 L1290,570Z" fill="#0e2b31"/><path d="M1260,570 L1315,319 L1370,570Z" fill="#0e2b31"/><path d="M1380,650 L1492,440 L1640,650Z" fill="#153b3f"/><path d="M1325,570 L1380,350 L1435,570Z" fill="#0e2b31"/><path d="M1405,570 L1460,350 L1515,570Z" fill="#0e2b31"/><g fill="#071c25"><path d="M805 365h290l-17 14H822Z"/><path d="M827 390h246v9H827Z"/><path d="M847 372h13l-5 155h-14Z"/><path d="M1041 372h13l6 155h-14Z"/></g>
<g fill="#e6b575"><path d="M777 486h14v21h-14Z"/><path d="M1110 486h14v21h-14Z"/><path d="M721 516h9v14h-9Z"/><path d="M1172 516h9v14h-9Z"/></g>
<g stroke="#a87b51" opacity=".45"><path d="M784 507v49M1117 507v49M725 530v36M1176 530v36"/></g><path d="M0 565Q620 536 1280 569V720H0Z" fill="url(#water)"/>
<g stroke="#9cbbaf" opacity=".1"><path d="M780 581h270M848 595h125M707 614h405M839 637h236M605 676h505"/></g>
<path fill="url(#shade)" d="M0 0h1280v720H0Z"/>
<g fill="#e5b17b" opacity=".6"><circle cx="1020" cy="527" r="2"/><circle cx="918" cy="552" r="1.5"/><circle cx="848" cy="495" r="1"/></g>
</svg>